<svg width="549" height="148" viewBox="0 0 549 148" fill="none" xmlns="http://www.w3.org/2000/svg">
<g clip-path="url(#clip0_5_7)">
<path d="M17 92C17 78 19 78.5 0 77L15.5 75L86.5 12L154 50.5L115.5 99.5C115.5 99.5 17 106 17 92Z" fill="white"/>
<path d="M17 90.0076L8 148.008C8 148.008 39.5 146.008 51.5 133.508C54 130.903 57.5 127.508 59.5 113.508C60.8601 103.987 74.5 104.008 74.5 104.008C89.3515 104.008 109 103.508 109 103.508C132.5 101.008 157 81.0076 157 50.0076C155.957 23.6246 140.5 -0.492355 104 0.00764026H37C32.5 0.00764026 31.5 3.50764 31.5 3.50764L21 64.5076C17 77.0076 7 72.5076 0 77.0076H52.5L79 20.5076C79 20.5076 81 17.5076 84 18.0076C87 18.5076 88 21.0076 88 21.0076L99 70.0076C99 70.0076 104.5 56.5076 106 53.5076C107.5 50.5076 111.5 50.5076 111.5 50.5076L149 50.0076C148.376 54.5873 146.684 56.3739 141 58.0076C133.063 59.6359 126.949 60.1861 113 60.5076L102.5 86.5076C97.5 97.0076 92.5 96.0076 90 89.0076L79.5 46.0076L65.5 75.5076C61.5 83.5076 59 87.0076 51 87.0076H20C17.5 87.0076 17 90.0076 17 90.0076Z" fill="url(#paint0_linear_5_7)"/>
<path d="M187.031 106V42H209.844C214.823 42 218.948 42.9062 222.219 44.7187C225.49 46.5312 227.938 49.0104 229.563 52.1562C231.188 55.2812 232 58.8021 232 62.7187C232 66.6562 231.177 70.1979 229.531 73.3438C227.906 76.4687 225.448 78.9479 222.156 80.7812C218.885 82.5937 214.771 83.5 209.812 83.5H194.125V75.3125H208.938C212.083 75.3125 214.635 74.7708 216.594 73.6875C218.552 72.5833 219.99 71.0833 220.906 69.1875C221.823 67.2917 222.281 65.1354 222.281 62.7187C222.281 60.3021 221.823 58.1562 220.906 56.2812C219.99 54.4062 218.542 52.9375 216.563 51.875C214.604 50.8125 212.021 50.2812 208.813 50.2812H196.688V106H187.031ZM268.377 86.0937V58H277.752V106H268.564V97.6875H268.064C266.96 100.25 265.189 102.385 262.752 104.094C260.335 105.781 257.324 106.625 253.72 106.625C250.637 106.625 247.908 105.948 245.533 104.594C243.179 103.219 241.324 101.188 239.97 98.5C238.637 95.8125 237.97 92.4896 237.97 88.5312V58H247.314V87.4062C247.314 90.6771 248.22 93.2812 250.033 95.2187C251.845 97.1562 254.199 98.125 257.095 98.125C258.845 98.125 260.585 97.6875 262.314 96.8125C264.064 95.9375 265.512 94.6146 266.658 92.8437C267.824 91.0729 268.397 88.8229 268.377 86.0937ZM295.05 42V106H285.706V42H295.05ZM338.989 69.7187L330.52 71.2187C330.166 70.1354 329.604 69.1042 328.833 68.125C328.083 67.1458 327.062 66.3437 325.77 65.7187C324.479 65.0937 322.864 64.7812 320.927 64.7812C318.281 64.7812 316.072 65.375 314.302 66.5625C312.531 67.7292 311.645 69.2396 311.645 71.0937C311.645 72.6979 312.239 73.9896 313.427 74.9687C314.614 75.9479 316.531 76.75 319.177 77.375L326.802 79.125C331.218 80.1458 334.51 81.7188 336.677 83.8438C338.843 85.9687 339.927 88.7292 339.927 92.125C339.927 95 339.093 97.5625 337.427 99.8125C335.781 102.042 333.479 103.792 330.52 105.062C327.583 106.333 324.177 106.969 320.302 106.969C314.927 106.969 310.541 105.823 307.145 103.531C303.749 101.219 301.666 97.9375 300.895 93.6875L309.927 92.3125C310.489 94.6667 311.645 96.4479 313.395 97.6562C315.145 98.8437 317.427 99.4375 320.239 99.4375C323.302 99.4375 325.749 98.8021 327.583 97.5312C329.416 96.2396 330.333 94.6667 330.333 92.8125C330.333 91.3125 329.77 90.0521 328.645 89.0313C327.541 88.0104 325.843 87.2396 323.552 86.7187L315.427 84.9375C310.947 83.9167 307.635 82.2917 305.489 80.0625C303.364 77.8333 302.302 75.0104 302.302 71.5937C302.302 68.7604 303.093 66.2812 304.677 64.1562C306.26 62.0312 308.447 60.375 311.239 59.1875C314.031 57.9792 317.229 57.375 320.833 57.375C326.02 57.375 330.104 58.5 333.083 60.75C336.062 62.9792 338.031 65.9687 338.989 69.7187ZM366.288 106.969C361.558 106.969 357.485 105.958 354.069 103.938C350.673 101.896 348.048 99.0312 346.194 95.3438C344.36 91.6354 343.444 87.2917 343.444 82.3125C343.444 77.3958 344.36 73.0625 346.194 69.3125C348.048 65.5625 350.631 62.6354 353.944 60.5312C357.277 58.4271 361.173 57.375 365.631 57.375C368.34 57.375 370.965 57.8229 373.506 58.7187C376.048 59.6146 378.329 61.0208 380.35 62.9375C382.371 64.8542 383.965 67.3437 385.131 70.4062C386.298 73.4479 386.881 77.1458 386.881 81.5V84.8125H348.725V77.8125H377.725C377.725 75.3542 377.225 73.1771 376.225 71.2812C375.225 69.3646 373.819 67.8542 372.006 66.75C370.215 65.6458 368.11 65.0938 365.694 65.0938C363.069 65.0938 360.777 65.7396 358.819 67.0312C356.881 68.3021 355.381 69.9687 354.319 72.0312C353.277 74.0729 352.756 76.2917 352.756 78.6875V84.1562C352.756 87.3646 353.319 90.0937 354.444 92.3438C355.59 94.5937 357.183 96.3125 359.225 97.5C361.267 98.6667 363.652 99.25 366.381 99.25C368.152 99.25 369.767 99 371.225 98.5C372.683 97.9792 373.944 97.2083 375.006 96.1875C376.069 95.1667 376.881 93.9062 377.444 92.4062L386.288 94C385.579 96.6042 384.308 98.8854 382.475 100.844C380.663 102.781 378.381 104.292 375.631 105.375C372.902 106.438 369.788 106.969 366.288 106.969ZM401.992 42V106H392.648V42H401.992ZM423.931 107.063C420.89 107.063 418.14 106.5 415.681 105.375C413.223 104.229 411.275 102.573 409.837 100.406C408.421 98.2396 407.712 95.5833 407.712 92.4375C407.712 89.7292 408.233 87.5 409.275 85.75C410.317 84 411.723 82.6146 413.494 81.5938C415.265 80.5729 417.244 79.8021 419.431 79.2813C421.619 78.7604 423.848 78.3646 426.119 78.0937C428.994 77.7604 431.327 77.4896 433.119 77.2812C434.91 77.0521 436.212 76.6875 437.025 76.1875C437.837 75.6875 438.244 74.875 438.244 73.75V73.5312C438.244 70.8021 437.473 68.6875 435.931 67.1875C434.41 65.6875 432.14 64.9375 429.119 64.9375C425.973 64.9375 423.494 65.6354 421.681 67.0312C419.89 68.4062 418.65 69.9375 417.962 71.625L409.181 69.625C410.223 66.7083 411.744 64.3542 413.744 62.5625C415.765 60.75 418.087 59.4375 420.712 58.625C423.337 57.7917 426.098 57.375 428.994 57.375C430.91 57.375 432.942 57.6042 435.087 58.0625C437.254 58.5 439.275 59.3125 441.15 60.5C443.046 61.6875 444.598 63.3854 445.806 65.5937C447.015 67.7812 447.619 70.625 447.619 74.125V106H438.494V99.4375H438.119C437.515 100.646 436.608 101.833 435.4 103C434.192 104.167 432.64 105.135 430.744 105.906C428.848 106.677 426.577 107.063 423.931 107.063ZM425.962 99.5625C428.546 99.5625 430.754 99.0521 432.587 98.0313C434.442 97.0104 435.848 95.6771 436.806 94.0312C437.785 92.3646 438.275 90.5833 438.275 88.6875V82.5C437.942 82.8333 437.296 83.1458 436.337 83.4375C435.4 83.7083 434.327 83.9479 433.119 84.1562C431.91 84.3437 430.733 84.5208 429.587 84.6875C428.442 84.8333 427.483 84.9583 426.712 85.0625C424.9 85.2917 423.244 85.6771 421.744 86.2187C420.265 86.7604 419.077 87.5417 418.181 88.5625C417.306 89.5625 416.869 90.8958 416.869 92.5625C416.869 94.875 417.723 96.625 419.431 97.8125C421.14 98.9792 423.317 99.5625 425.962 99.5625ZM464.808 77.5V106H455.464V58H464.433V65.8125H465.027C466.131 63.2708 467.86 61.2292 470.214 59.6875C472.589 58.1458 475.579 57.375 479.183 57.375C482.454 57.375 485.318 58.0625 487.777 59.4375C490.235 60.7917 492.141 62.8125 493.495 65.5C494.849 68.1875 495.527 71.5104 495.527 75.4687V106H486.183V76.5937C486.183 73.1146 485.277 70.3958 483.464 68.4375C481.652 66.4583 479.162 65.4687 475.995 65.4687C473.829 65.4687 471.902 65.9375 470.214 66.875C468.547 67.8125 467.224 69.1875 466.245 71C465.287 72.7917 464.808 74.9583 464.808 77.5ZM524.145 106.969C519.416 106.969 515.343 105.958 511.927 103.938C508.531 101.896 505.906 99.0312 504.052 95.3438C502.218 91.6354 501.302 87.2917 501.302 82.3125C501.302 77.3958 502.218 73.0625 504.052 69.3125C505.906 65.5625 508.489 62.6354 511.802 60.5312C515.135 58.4271 519.031 57.375 523.489 57.375C526.197 57.375 528.822 57.8229 531.364 58.7187C533.906 59.6146 536.187 61.0208 538.208 62.9375C540.229 64.8542 541.822 67.3437 542.989 70.4062C544.156 73.4479 544.739 77.1458 544.739 81.5V84.8125H506.583V77.8125H535.583C535.583 75.3542 535.083 73.1771 534.083 71.2812C533.083 69.3646 531.677 67.8542 529.864 66.75C528.072 65.6458 525.968 65.0938 523.552 65.0938C520.927 65.0938 518.635 65.7396 516.677 67.0312C514.739 68.3021 513.239 69.9687 512.177 72.0312C511.135 74.0729 510.614 76.2917 510.614 78.6875V84.1562C510.614 87.3646 511.177 90.0937 512.302 92.3438C513.447 94.5937 515.041 96.3125 517.083 97.5C519.124 98.6667 521.51 99.25 524.239 99.25C526.01 99.25 527.624 99 529.083 98.5C530.541 97.9792 531.802 97.2083 532.864 96.1875C533.927 95.1667 534.739 93.9062 535.302 92.4062L544.145 94C543.437 96.6042 542.166 98.8854 540.333 100.844C538.52 102.781 536.239 104.292 533.489 105.375C530.76 106.438 527.645 106.969 524.145 106.969Z" fill="white"/>
</g>
<defs>
<linearGradient id="paint0_linear_5_7" x1="22" y1="-20.9924" x2="140.5" y2="91.0076" gradientUnits="userSpaceOnUse">
<stop stop-color="#08C7F7"/>
<stop offset="0.3" stop-color="#0885F5"/>
<stop offset="0.56" stop-color="#4729C7"/>
<stop offset="0.78" stop-color="#F04533"/>
<stop offset="1" stop-color="#FFD12E"/>
</linearGradient>
<clipPath id="clip0_5_7">
<rect width="549" height="148" fill="white"/>
</clipPath>
</defs>
</svg>
