<svg width="358" height="66" viewBox="0 0 358 66" fill="none" xmlns="http://www.w3.org/2000/svg">
<path d="M1.78814e-07 64V-1.90735e-06H22.8125C27.7917 -1.90735e-06 31.9167 0.906248 35.1875 2.71875C38.4583 4.53125 40.9063 7.01041 42.5313 10.1562C44.1563 13.2812 44.9688 16.8021 44.9688 20.7187C44.9688 24.6562 44.1458 28.1979 42.5 31.3438C40.875 34.4687 38.4167 36.9479 35.125 38.7812C31.8542 40.5937 27.7396 41.5 22.7812 41.5H7.09375V33.3125H21.9063C25.0521 33.3125 27.6042 32.7708 29.5625 31.6875C31.5208 30.5833 32.9583 29.0833 33.875 27.1875C34.7917 25.2917 35.25 23.1354 35.25 20.7187C35.25 18.3021 34.7917 16.1562 33.875 14.2812C32.9583 12.4062 31.5104 10.9375 29.5313 9.875C27.5729 8.8125 24.9896 8.28125 21.7813 8.28125H9.65625V64H1.78814e-07ZM81.3453 44.0937V16H90.7203V64H81.5328V55.6875H81.0328C79.9286 58.25 78.1578 60.3854 75.7203 62.0938C73.3036 63.7813 70.2932 64.625 66.6891 64.625C63.6057 64.625 60.8766 63.9479 58.5016 62.5938C56.1474 61.2188 54.2932 59.1875 52.9391 56.5C51.6057 53.8125 50.9391 50.4896 50.9391 46.5312V16H60.2828V45.4062C60.2828 48.6771 61.1891 51.2812 63.0016 53.2187C64.8141 55.1562 67.1682 56.125 70.0641 56.125C71.8141 56.125 73.5536 55.6875 75.2828 54.8125C77.0328 53.9375 78.4807 52.6146 79.6266 50.8437C80.7932 49.0729 81.3661 46.8229 81.3453 44.0937ZM108.019 -1.90735e-06V64H98.675V-1.90735e-06H108.019ZM151.958 27.7187L143.489 29.2187C143.135 28.1354 142.572 27.1042 141.802 26.125C141.052 25.1458 140.031 24.3437 138.739 23.7187C137.447 23.0937 135.833 22.7812 133.895 22.7812C131.249 22.7812 129.041 23.375 127.27 24.5625C125.499 25.7292 124.614 27.2396 124.614 29.0937C124.614 30.6979 125.208 31.9896 126.395 32.9687C127.583 33.9479 129.499 34.75 132.145 35.375L139.77 37.125C144.187 38.1458 147.479 39.7188 149.645 41.8438C151.812 43.9687 152.895 46.7292 152.895 50.125C152.895 53 152.062 55.5625 150.395 57.8125C148.749 60.0417 146.447 61.7917 143.489 63.0625C140.552 64.3333 137.145 64.9688 133.27 64.9688C127.895 64.9688 123.51 63.8229 120.114 61.5312C116.718 59.2187 114.635 55.9375 113.864 51.6875L122.895 50.3125C123.458 52.6667 124.614 54.4479 126.364 55.6562C128.114 56.8437 130.395 57.4375 133.208 57.4375C136.27 57.4375 138.718 56.8021 140.552 55.5312C142.385 54.2396 143.302 52.6667 143.302 50.8125C143.302 49.3125 142.739 48.0521 141.614 47.0313C140.51 46.0104 138.812 45.2396 136.52 44.7187L128.395 42.9375C123.916 41.9167 120.604 40.2917 118.458 38.0625C116.333 35.8333 115.27 33.0104 115.27 29.5937C115.27 26.7604 116.062 24.2812 117.645 22.1562C119.229 20.0312 121.416 18.375 124.208 17.1875C126.999 15.9792 130.197 15.375 133.802 15.375C138.989 15.375 143.072 16.5 146.052 18.75C149.031 20.9792 150.999 23.9687 151.958 27.7187ZM179.256 64.9688C174.527 64.9688 170.454 63.9583 167.038 61.9375C163.642 59.8958 161.017 57.0312 159.163 53.3438C157.329 49.6354 156.413 45.2917 156.413 40.3125C156.413 35.3958 157.329 31.0625 159.163 27.3125C161.017 23.5625 163.6 20.6354 166.913 18.5312C170.246 16.4271 174.142 15.375 178.6 15.375C181.308 15.375 183.933 15.8229 186.475 16.7187C189.017 17.6146 191.298 19.0208 193.319 20.9375C195.34 22.8542 196.933 25.3437 198.1 28.4062C199.267 31.4479 199.85 35.1458 199.85 39.5V42.8125H161.694V35.8125H190.694C190.694 33.3542 190.194 31.1771 189.194 29.2812C188.194 27.3646 186.788 25.8542 184.975 24.75C183.183 23.6458 181.079 23.0938 178.663 23.0938C176.038 23.0938 173.746 23.7396 171.788 25.0312C169.85 26.3021 168.35 27.9687 167.288 30.0312C166.246 32.0729 165.725 34.2917 165.725 36.6875V42.1562C165.725 45.3646 166.288 48.0937 167.413 50.3438C168.558 52.5937 170.152 54.3125 172.194 55.5C174.235 56.6667 176.621 57.25 179.35 57.25C181.121 57.25 182.735 57 184.194 56.5C185.652 55.9792 186.913 55.2083 187.975 54.1875C189.038 53.1667 189.85 51.9062 190.413 50.4062L199.256 52C198.548 54.6042 197.277 56.8854 195.444 58.8438C193.631 60.7812 191.35 62.2917 188.6 63.375C185.871 64.4375 182.756 64.9688 179.256 64.9688ZM214.961 -1.90735e-06V64H205.617V-1.90735e-06H214.961ZM236.9 65.0625C233.858 65.0625 231.108 64.5 228.65 63.375C226.192 62.2292 224.244 60.5729 222.806 58.4062C221.39 56.2396 220.681 53.5833 220.681 50.4375C220.681 47.7292 221.202 45.5 222.244 43.75C223.285 42 224.692 40.6146 226.462 39.5938C228.233 38.5729 230.212 37.8021 232.4 37.2813C234.587 36.7604 236.817 36.3646 239.087 36.0937C241.962 35.7604 244.296 35.4896 246.087 35.2812C247.879 35.0521 249.181 34.6875 249.994 34.1875C250.806 33.6875 251.212 32.875 251.212 31.75V31.5312C251.212 28.8021 250.442 26.6875 248.9 25.1875C247.379 23.6875 245.108 22.9375 242.087 22.9375C238.942 22.9375 236.462 23.6354 234.65 25.0312C232.858 26.4062 231.619 27.9375 230.931 29.625L222.15 27.625C223.192 24.7083 224.712 22.3542 226.712 20.5625C228.733 18.75 231.056 17.4375 233.681 16.625C236.306 15.7917 239.067 15.375 241.962 15.375C243.879 15.375 245.91 15.6042 248.056 16.0625C250.223 16.5 252.244 17.3125 254.119 18.5C256.015 19.6875 257.567 21.3854 258.775 23.5937C259.983 25.7812 260.587 28.625 260.587 32.125V64H251.462V57.4375H251.087C250.483 58.6458 249.577 59.8333 248.369 61C247.16 62.1667 245.608 63.1354 243.712 63.9062C241.817 64.6771 239.546 65.0625 236.9 65.0625ZM238.931 57.5625C241.515 57.5625 243.723 57.0521 245.556 56.0313C247.41 55.0104 248.817 53.6771 249.775 52.0312C250.754 50.3646 251.244 48.5833 251.244 46.6875V40.5C250.91 40.8333 250.265 41.1458 249.306 41.4375C248.369 41.7083 247.296 41.9479 246.087 42.1562C244.879 42.3437 243.702 42.5208 242.556 42.6875C241.41 42.8333 240.452 42.9583 239.681 43.0625C237.869 43.2917 236.212 43.6771 234.712 44.2187C233.233 44.7604 232.046 45.5417 231.15 46.5625C230.275 47.5625 229.837 48.8958 229.837 50.5625C229.837 52.875 230.692 54.625 232.4 55.8125C234.108 56.9792 236.285 57.5625 238.931 57.5625ZM277.777 35.5V64H268.433V16H277.402V23.8125H277.995C279.099 21.2708 280.829 19.2292 283.183 17.6875C285.558 16.1458 288.547 15.375 292.152 15.375C295.422 15.375 298.287 16.0625 300.745 17.4375C303.204 18.7917 305.11 20.8125 306.464 23.5C307.818 26.1875 308.495 29.5104 308.495 33.4687V64H299.152V34.5937C299.152 31.1146 298.245 28.3958 296.433 26.4375C294.62 24.4583 292.131 23.4687 288.964 23.4687C286.797 23.4687 284.87 23.9375 283.183 24.875C281.516 25.8125 280.193 27.1875 279.214 29C278.256 30.7917 277.777 32.9583 277.777 35.5ZM337.114 64.9688C332.385 64.9688 328.312 63.9583 324.895 61.9375C321.499 59.8958 318.874 57.0312 317.02 53.3438C315.187 49.6354 314.27 45.2917 314.27 40.3125C314.27 35.3958 315.187 31.0625 317.02 27.3125C318.874 23.5625 321.458 20.6354 324.77 18.5312C328.104 16.4271 331.999 15.375 336.458 15.375C339.166 15.375 341.791 15.8229 344.333 16.7187C346.874 17.6146 349.156 19.0208 351.177 20.9375C353.197 22.8542 354.791 25.3437 355.958 28.4062C357.124 31.4479 357.708 35.1458 357.708 39.5V42.8125H319.552V35.8125H348.552C348.552 33.3542 348.052 31.1771 347.052 29.2812C346.052 27.3646 344.645 25.8542 342.833 24.75C341.041 23.6458 338.937 23.0938 336.52 23.0938C333.895 23.0938 331.604 23.7396 329.645 25.0312C327.708 26.3021 326.208 27.9687 325.145 30.0312C324.104 32.0729 323.583 34.2917 323.583 36.6875V42.1562C323.583 45.3646 324.145 48.0937 325.27 50.3438C326.416 52.5937 328.01 54.3125 330.052 55.5C332.093 56.6667 334.479 57.25 337.208 57.25C338.979 57.25 340.593 57 342.052 56.5C343.51 55.9792 344.77 55.2083 345.833 54.1875C346.895 53.1667 347.708 51.9062 348.27 50.4062L357.114 52C356.406 54.6042 355.135 56.8854 353.302 58.8438C351.489 60.7812 349.208 62.2917 346.458 63.375C343.729 64.4375 340.614 64.9688 337.114 64.9688Z" fill="white"/>
</svg>
