<svg width="157" height="148" viewBox="0 0 157 148" fill="none" xmlns="http://www.w3.org/2000/svg">
<path d="M17 92C17 78 19 78.5 0 77L15.5 75L86.5 12L154 50.5L115.5 99.5C115.5 99.5 17 106 17 92Z" fill="white"/>
<path d="M17 90.0076L8 148.008C8 148.008 39.5 146.008 51.5 133.508C54 130.903 57.5 127.508 59.5 113.508C60.8601 103.987 74.5 104.008 74.5 104.008C89.3515 104.008 109 103.508 109 103.508C132.5 101.008 157 81.0076 157 50.0076C155.957 23.6246 140.5 -0.492355 104 0.00764026H37C32.5 0.00764026 31.5 3.50764 31.5 3.50764L21 64.5076C17 77.0076 7 72.5076 0 77.0076H52.5L79 20.5076C79 20.5076 81 17.5076 84 18.0076C87 18.5076 88 21.0076 88 21.0076L99 70.0076C99 70.0076 104.5 56.5076 106 53.5076C107.5 50.5076 111.5 50.5076 111.5 50.5076L149 50.0076C148.376 54.5873 146.684 56.3739 141 58.0076C133.063 59.6359 126.949 60.1861 113 60.5076L102.5 86.5076C97.5 97.0076 92.5 96.0076 90 89.0076L79.5 46.0076L65.5 75.5076C61.5 83.5076 59 87.0076 51 87.0076H20C17.5 87.0076 17 90.0076 17 90.0076Z" fill="url(#paint0_linear_6_12)"/>
<defs>
<linearGradient id="paint0_linear_6_12" x1="22" y1="-20.9924" x2="140.5" y2="91.0076" gradientUnits="userSpaceOnUse">
<stop stop-color="#08C7F7"/>
<stop offset="0.3" stop-color="#0885F5"/>
<stop offset="0.56" stop-color="#4729C7"/>
<stop offset="0.78" stop-color="#F04533"/>
<stop offset="1" stop-color="#FFD12E"/>
</linearGradient>
</defs>
</svg>
